<svg id="Capa_1" enable-background="new 0 0 512 512" height="512" viewBox="0 0 512 512" width="512" xmlns="http://www.w3.org/2000/svg"><g><path d="m497 19.962c-14.262 0-27.801-4.537-39.152-13.121l-9.048-6.841-9.047 6.841c-11.352 8.584-24.891 13.121-39.153 13.121s-27.801-4.537-39.153-13.121l-9.047-6.841-9.047 6.841c-11.351 8.583-24.89 13.121-39.152 13.121s-27.801-4.537-39.153-13.121l-9.048-6.841-60 214.962 316-105v-90z" fill="#2874c2"/><path d="m246.953 6.841c-11.352 8.584-24.891 13.121-39.153 13.121s-27.801-4.537-39.153-13.121l-9.047-6.841-9.047 6.841c-11.352 8.584-24.891 13.121-39.153 13.121s-27.801-4.537-39.153-13.121l-9.047-6.841-9.047 6.841c-11.352 8.584-24.891 13.121-39.153 13.121h-15v90l256 120v-229.962z" fill="#1f8dcd"/><path d="m497 109.962c-14.262 0-27.801-4.537-39.152-13.121l-9.048-6.841-9.047 6.841c-11.352 8.584-24.891 13.121-39.153 13.121s-27.801-4.537-39.153-13.121l-9.047-6.841-9.047 6.841c-11.351 8.583-24.89 13.121-39.152 13.121s-27.801-4.537-39.153-13.121l-9.048-6.841-60 356 316-75v-261.038z" fill="#1f8dcd"/><g fill="#16a5d9"><path d="m256 90-9.047 6.841c-11.352 8.584-24.891 13.121-39.153 13.121s-27.801-4.537-39.153-13.121l-9.047-6.841-9.047 6.841c-11.352 8.584-24.891 13.121-39.153 13.121s-27.801-4.537-39.152-13.121l-9.048-6.841-9.047 6.841c-11.352 8.584-24.891 13.121-39.153 13.121h-15v141.038l256 195z"/><path d="m196 371v70.5l60 70.5h256v-141z"/><path d="m286 281c0-16.569-13.431-30-30-30l-30 30 30 30c16.569 0 30-13.431 30-30z"/></g><path d="m226 341c0-16.569 13.431-30 30-30v-60h-256v261h256v-141c-16.569 0-30-13.431-30-30z" fill="#30bbec"/></g></svg>