<svg id="Capa_1" enable-background="new 0 0 512 512" height="512" viewBox="0 0 512 512" width="512" xmlns="http://www.w3.org/2000/svg"><g><path d="m452 0h-60.333l60 91.833c0 16.661 13.506 30.167 30.167 30.167 16.66 0 30.166-13.506 30.166-30.167v-31.833c0-33.137-26.863-60-60-60z" fill="#c3efff"/><path d="m391.667 0h-60.333l60 91.833c0 16.661 13.506 30.167 30.167 30.167s30.167-13.506 30.167-30.167v-31.833c-.001-33.137-26.864-60-60.001-60z" fill="#86e0ff"/><path d="m331.333 0h-75.333l75 91.833c0 16.661 13.506 30.167 30.167 30.167 16.66 0 30.167-13.506 30.167-30.167v-31.833c-.001-33.137-26.864-60-60.001-60z" fill="#c3efff"/><path d="m512 212h-15c-14.263 0-27.802-4.537-39.153-13.121l-9.047-6.841-9.047 6.841c-11.352 8.584-24.891 13.121-39.153 13.121-38.377 0-69.6-31.223-69.6-69.6v-67.4c0-41.355-33.645-75-75-75l-120 422 376-120z" fill="#16a5d9"/><path d="m74.98 74.98c-48.351 48.353-74.98 112.64-74.98 181.02v46l256 120v-422c-68.38 0-132.667 26.629-181.02 74.98z" fill="#30bbec"/><path d="m497 302c-14.262 0-27.801-4.537-39.152-13.121l-9.047-6.841-9.047 6.841c-11.353 8.584-24.892 13.121-39.154 13.121s-27.801-4.537-39.153-13.121l-9.047-6.841-9.047 6.841c-11.352 8.584-24.891 13.121-39.153 13.121s-27.801-4.537-39.153-13.121l-9.047-6.841-60 199.962 316-90v-90z" fill="#2874c2"/><path d="m246.953 288.879c-11.352 8.584-24.89 13.121-39.153 13.121s-27.801-4.537-39.153-13.121l-9.047-6.841-9.047 6.841c-11.352 8.584-24.891 13.121-39.153 13.121s-27.801-4.537-39.153-13.121l-9.047-6.841-9.047 6.841c-11.352 8.584-24.891 13.121-39.153 13.121h-15v90l256 90v-199.962z" fill="#1f8dcd"/><path d="m457.848 378.879-9.047-6.841-9.047 6.841c-11.353 8.584-24.892 13.121-39.154 13.121s-27.801-4.537-39.153-13.121l-9.047-6.841-9.047 6.841c-11.352 8.584-24.891 13.121-39.153 13.121s-27.801-4.537-39.153-13.121l-9.047-6.841-120 69.981 120 69.981h256v-120h-15c-14.262 0-27.801-4.537-39.152-13.121z" fill="#1f8dcd"/><path d="m246.953 378.879c-11.352 8.584-24.891 13.121-39.153 13.121s-27.801-4.537-39.153-13.121l-9.047-6.841-9.047 6.841c-11.352 8.584-24.891 13.121-39.153 13.121s-27.801-4.537-39.152-13.121l-9.047-6.841-9.047 6.841c-11.353 8.584-24.892 13.121-39.154 13.121h-15v120h256v-139.962z" fill="#16a5d9"/></g></svg>